<svg width="226" height="60" viewBox="0 0 226 60" fill="none" xmlns="http://www.w3.org/2000/svg">
<g filter="url(#filter0_d_496:7213)">
<mask id="path-1-inside-1_496:7213" fill="white">
<path fill-rule="evenodd" clip-rule="evenodd" d="M209.652 3.01544C208.939 1.76914 207.614 1 206.179 1H6.39263C3.32134 1 1.39587 4.31793 2.91966 6.98456L14.3659 27.0154C15.0686 28.2452 15.0686 29.7548 14.3659 30.9846L2.91966 51.0154C1.39587 53.6821 3.32133 57 6.39262 57H206.179C207.614 57 208.939 56.2309 209.652 54.9846L223.366 30.9846C224.069 29.7548 224.069 28.2452 223.366 27.0154L209.652 3.01544Z"/>
</mask>
<path fill-rule="evenodd" clip-rule="evenodd" d="M209.652 3.01544C208.939 1.76914 207.614 1 206.179 1H6.39263C3.32134 1 1.39587 4.31793 2.91966 6.98456L14.3659 27.0154C15.0686 28.2452 15.0686 29.7548 14.3659 30.9846L2.91966 51.0154C1.39587 53.6821 3.32133 57 6.39262 57H206.179C207.614 57 208.939 56.2309 209.652 54.9846L223.366 30.9846C224.069 29.7548 224.069 28.2452 223.366 27.0154L209.652 3.01544Z" fill="white"/>
<path d="M14.3659 27.0154L13.4976 27.5116L14.3659 27.0154ZM14.3659 30.9846L13.4976 30.4884L14.3659 30.9846ZM223.366 30.9846L224.234 31.4807V31.4807L223.366 30.9846ZM223.366 27.0154L224.234 26.5193V26.5193L223.366 27.0154ZM209.652 3.01544L210.52 2.51931L209.652 3.01544ZM209.652 54.9846L210.52 55.4807L209.652 54.9846ZM6.39263 2H206.179V0H6.39263V2ZM15.2341 26.5193L3.7879 6.48842L2.05141 7.4807L13.4976 27.5116L15.2341 26.5193ZM15.2341 31.4807C16.1125 29.9435 16.1125 28.0565 15.2341 26.5193L13.4976 27.5116C14.0247 28.4339 14.0247 29.5661 13.4976 30.4884L15.2341 31.4807ZM3.7879 51.5116L15.2341 31.4807L13.4976 30.4884L2.05141 50.5193L3.7879 51.5116ZM206.179 56H6.39262V58H206.179V56ZM222.498 30.4884L208.783 54.4884L210.52 55.4807L224.234 31.4807L222.498 30.4884ZM222.498 27.5116C223.025 28.4339 223.025 29.5661 222.498 30.4884L224.234 31.4807C225.112 29.9435 225.112 28.0565 224.234 26.5193L222.498 27.5116ZM208.783 3.51158L222.498 27.5116L224.234 26.5193L210.52 2.51931L208.783 3.51158ZM2.05141 50.5193C0.146682 53.8526 2.55351 58 6.39262 58V56C4.08916 56 2.64506 53.5116 3.7879 51.5116L2.05141 50.5193ZM206.179 2C207.255 2 208.249 2.57686 208.783 3.51158L210.52 2.51931C209.63 0.96143 207.973 0 206.179 0V2ZM206.179 58C207.973 58 209.63 57.0386 210.52 55.4807L208.783 54.4884C208.249 55.4231 207.255 56 206.179 56V58ZM6.39263 0C2.55352 0 0.146681 4.14741 2.05141 7.4807L3.7879 6.48842C2.64506 4.48845 4.08916 2 6.39263 2V0Z" fill="#C1C9D2" mask="url(#path-1-inside-1_496:7213)"/>
</g>
<defs>
<filter id="filter0_d_496:7213" x="0.386719" y="0" width="225.506" height="60" filterUnits="userSpaceOnUse" color-interpolation-filters="sRGB">
<feFlood flood-opacity="0" result="BackgroundImageFix"/>
<feColorMatrix in="SourceAlpha" type="matrix" values="0 0 0 0 0 0 0 0 0 0 0 0 0 0 0 0 0 0 127 0" result="hardAlpha"/>
<feOffset dy="1"/>
<feGaussianBlur stdDeviation="1"/>
<feColorMatrix type="matrix" values="0 0 0 0 0.215686 0 0 0 0 0.254902 0 0 0 0 0.317647 0 0 0 0.08 0"/>
<feBlend mode="normal" in2="BackgroundImageFix" result="effect1_dropShadow_496:7213"/>
<feBlend mode="normal" in="SourceGraphic" in2="effect1_dropShadow_496:7213" result="shape"/>
</filter>
</defs>
</svg>
