<svg width="24" height="24" viewBox="0 0 24 24" fill="none" xmlns="http://www.w3.org/2000/svg">
<path d="M10.7168 5.06055L19.2021 13.5458L15.6665 17.0814C14.1044 18.6435 11.5718 18.6435 10.0097 17.0814L7.18126 14.2529C5.61917 12.6908 5.61917 10.1582 7.18126 8.59608L10.7168 5.06055Z" fill="#FF762B"/>
<path fill-rule="evenodd" clip-rule="evenodd" d="M15.4913 4.53033C15.7842 4.82322 15.7842 5.2981 15.4913 5.59099L11.2486 9.83363C10.9557 10.1265 10.4809 10.1265 10.188 9.83363C9.89507 9.54074 9.89507 9.06586 10.188 8.77297L14.4306 4.53033C14.7235 4.23744 15.1984 4.23744 15.4913 4.53033ZM19.7339 8.77297C20.0268 9.06586 20.0268 9.54074 19.7339 9.83363L15.4913 14.0763C15.1984 14.3692 14.7235 14.3692 14.4306 14.0763C14.1377 13.7834 14.1377 13.3085 14.4306 13.0156L18.6732 8.77297C18.9661 8.48008 19.441 8.48008 19.7339 8.77297Z" fill="#FF762B"/>
<path fill-rule="evenodd" clip-rule="evenodd" d="M9.83306 14.4297C10.126 14.7226 10.126 15.1975 9.83306 15.4904L5.59042 19.733C5.29753 20.0259 4.82266 20.0259 4.52976 19.733C4.23687 19.4402 4.23687 18.9653 4.52976 18.6724L8.7724 14.4297C9.0653 14.1369 9.54017 14.1369 9.83306 14.4297Z" fill="#FF762B"/>
</svg>
