<svg width="24" height="24" viewBox="0 0 24 24" fill="none" xmlns="http://www.w3.org/2000/svg">
<path d="M11.6917 20C12.3843 20 12.9458 19.4385 12.9458 18.7459C12.9458 18.0532 12.3843 17.4917 11.6917 17.4917C10.999 17.4917 10.4375 18.0532 10.4375 18.7459C10.4375 19.4385 10.999 20 11.6917 20Z" fill="#FF762B"/>
<path d="M21.2544 8.15634C18.7563 5.47614 15.3736 4.00004 11.7291 4C8.08481 4.00004 4.70212 5.47614 2.20404 8.15634C1.91786 8.46342 1.93477 8.94441 2.24185 9.23062C2.54897 9.5168 3.02992 9.49992 3.31613 9.19281C5.52344 6.82451 8.51122 5.52023 11.7293 5.52019C14.9472 5.52023 17.935 6.82451 20.1423 9.19281C20.292 9.35342 20.495 9.43467 20.6985 9.43467C20.8841 9.43467 21.0701 9.3671 21.2166 9.23062C21.5236 8.94437 21.5406 8.46342 21.2544 8.15634Z" fill="#FF762B"/>
<path d="M18.4626 11.2954C16.616 9.43489 14.2244 8.41032 11.7283 8.4104C9.23158 8.41044 6.83994 9.43504 4.99398 11.2954C4.6983 11.5934 4.70017 12.0747 4.99816 12.3704C5.29616 12.666 5.77741 12.6642 6.07308 12.3662C7.63147 10.7956 9.63986 9.93062 11.7283 9.93059C13.8162 9.93051 15.8246 10.7955 17.3835 12.3663C17.5321 12.516 17.7276 12.5909 17.9231 12.5909C18.1166 12.5909 18.3103 12.5174 18.4585 12.3703C18.7565 12.0746 18.7583 11.5933 18.4626 11.2954Z" fill="#FF762B"/>
<path d="M15.422 14.4435C14.4331 13.4638 13.0157 12.8552 11.7227 12.8552C11.7225 12.8552 11.7222 12.8552 11.7221 12.8552H11.6673C11.6671 12.8552 11.667 12.8552 11.6668 12.8552C10.3737 12.8552 8.95614 13.4638 7.9673 14.4435C7.66911 14.739 7.66687 15.2202 7.96232 15.5184C8.11096 15.6684 8.3066 15.7436 8.50229 15.7436C8.69562 15.7436 8.88903 15.6703 9.03721 15.5235C9.74117 14.826 10.7733 14.3754 11.6668 14.3754C11.6669 14.3754 11.6671 14.3754 11.6672 14.3754H11.7222C11.7224 14.3754 11.7224 14.3754 11.7225 14.3754C12.616 14.3754 13.6482 14.826 14.3521 15.5235C14.6502 15.8189 15.1316 15.8167 15.427 15.5184C15.7225 15.2203 15.7202 14.739 15.422 14.4435Z" fill="#FF762B"/>
</svg>
