<svg width="24" height="24" viewBox="0 0 24 24" fill="none" xmlns="http://www.w3.org/2000/svg">
<path d="M12 8C13.1046 8 14 7.10457 14 6C14 4.89543 13.1046 4 12 4C10.8954 4 10 4.89543 10 6C10 7.10457 10.8954 8 12 8Z" fill="#FF762B"/>
<path fill-rule="evenodd" clip-rule="evenodd" d="M14.1529 9.73C13.9629 9.52 13.7229 9.35 13.4629 9.23C13.1729 9.09 12.8429 9 12.5029 9H11.4729C10.2329 9 9.22289 10.01 9.22289 11.25V12H3C2.45 12 2 12.45 2 13V20C2 21.1 2.9 22 4 22H20C21.1 22 22 21.1 22 20V13C22 12.45 21.55 12 21 12H14.7097C14.7266 11.9546 14.7503 11.696 14.7097 11.025C14.669 10.354 14.3215 9.88209 14.1529 9.73ZM6 20C6.55 20 7 19.55 7 19V15C7 14.45 6.55 14 6 14C5.45 14 5 14.45 5 15V19C5 19.55 5.45 20 6 20ZM10 20C10.55 20 11 19.55 11 19V15C11 14.45 10.55 14 10 14C9.45 14 9 14.45 9 15V19C9 19.55 9.45 20 10 20ZM14 20C14.55 20 15 19.55 15 19V15C15 14.45 14.55 14 14 14C13.45 14 13 14.45 13 15V19C13 19.55 13.45 20 14 20ZM18 20C18.55 20 19 19.55 19 19V15C19 14.45 18.55 14 18 14C17.45 14 17 14.45 17 15V19C17 19.55 17.45 20 18 20Z" fill="#FF762B"/>
</svg>
