<svg width="24" height="23" viewBox="0 0 24 23" fill="none" xmlns="http://www.w3.org/2000/svg">
<path d="M21.2435 2.90341C19.0784 0.738317 14.6948 1.5149 10.8833 4.53551C10.0176 5.22156 10.0242 6.49969 10.8053 7.28074L16.8662 13.3417C17.6472 14.1227 18.9254 14.1293 19.6114 13.2636C22.632 9.45214 23.4086 5.0685 21.2435 2.90341Z" fill="#FF762B"/>
<path fill-rule="evenodd" clip-rule="evenodd" d="M24.2076 -0.0595144C24.6167 0.349606 24.6167 1.01292 24.2076 1.42204L19.0221 6.60749C18.613 7.01661 17.9497 7.01661 17.5406 6.60749C17.1314 6.19837 17.1314 5.53506 17.5406 5.12594L22.726 -0.0595144C23.1351 -0.468635 23.7985 -0.468635 24.2076 -0.0595144Z" fill="#FF762B"/>
<path fill-rule="evenodd" clip-rule="evenodd" d="M9.39132 8.8298C9.80044 9.23892 9.80044 9.90223 9.39132 10.3114L2.74241 16.96C2.33329 17.3691 1.66997 17.3691 1.26085 16.96C0.851731 16.5508 0.851731 15.8875 1.26085 15.4784L7.90976 8.8298C8.31889 8.42068 8.9822 8.42068 9.39132 8.8298Z" fill="#FF762B"/>
<path fill-rule="evenodd" clip-rule="evenodd" d="M11.6138 12.5337C12.0229 12.9429 12.0229 13.6062 11.6138 14.0153L3.77306 21.8561C3.36394 22.2652 2.70062 22.2652 2.2915 21.8561C1.88238 21.4469 1.88238 20.7836 2.2915 20.3745L10.1323 12.5337C10.5414 12.1246 11.2047 12.1246 11.6138 12.5337Z" fill="#FF762B"/>
<path fill-rule="evenodd" clip-rule="evenodd" d="M15.317 14.7559C15.7261 15.165 15.7261 15.8284 15.317 16.2375L9.76871 21.7857C9.35959 22.1948 8.69628 22.1948 8.28716 21.7857C7.87803 21.3766 7.87804 20.7133 8.28716 20.3042L13.8354 14.7559C14.2445 14.3468 14.9078 14.3468 15.317 14.7559Z" fill="#FF762B"/>
</svg>
